<?xml version="1.0" encoding="utf-8" ?>
<svg baseProfile="tiny" height="100%" version="1.2" width="100%" xmlns="http://www.w3.org/2000/svg" xmlns:ev="http://www.w3.org/2001/xml-events" xmlns:xlink="http://www.w3.org/1999/xlink"><defs /><polyline fill="white" points="36.0,46.5 35.0,46.5 34.5,46.0 34.0,45.5 33.0,45.5 32.0,45.5 31.0,45.5 30.5,45.0 30.0,44.5 29.0,44.5 28.0,44.5 27.5,44.0 27.0,43.5 26.5,43.0 26.0,42.5 25.0,42.5 24.5,42.0 24.0,41.5 23.5,41.0 23.0,40.5 22.5,40.0 22.0,39.5 21.5,39.0 21.5,38.0 21.0,37.5 20.5,37.0 20.0,36.5 19.5,36.0 19.5,35.0 19.5,34.0 19.0,33.5 18.5,33.0 18.5,32.0 18.5,31.0 18.5,30.0 18.5,29.0 18.5,28.0 18.5,27.0 18.5,26.0 18.5,25.0 19.0,24.5 19.5,24.0 19.5,23.0 19.5,22.0 20.0,21.5 20.5,21.0 20.5,20.0 21.0,19.5 21.5,19.0 22.0,18.5 22.5,18.0 22.5,17.0 23.0,16.5 23.5,16.0 24.0,15.5 25.0,15.5 25.5,15.0 26.0,14.5 26.5,14.0 27.0,13.5 28.0,13.5 28.5,13.0 29.0,12.5 30.0,12.5 31.0,12.5 31.5,12.0 32.0,11.5 33.0,11.5 34.0,11.5 35.0,11.5 36.0,11.5 37.0,11.5 38.0,11.5 39.0,11.5 40.0,11.5 40.5,12.0 41.0,12.5 42.0,12.5 42.5,13.0 43.0,13.5 44.0,13.5 44.5,14.0 45.0,14.5 45.5,15.0 46.0,15.5 47.0,15.5 47.5,16.0 48.0,16.5 48.5,17.0 49.0,17.5 49.5,18.0 49.5,19.0 50.0,19.5 50.5,20.0 50.5,21.0 51.0,21.5 51.5,22.0 51.5,23.0 52.0,23.5 52.5,24.0 52.5,25.0 52.5,26.0 52.5,27.0 52.5,28.0 52.5,29.0 52.5,30.0 52.5,31.0 52.5,32.0 52.5,33.0 52.0,33.5 51.5,34.0 51.5,35.0 51.5,36.0 51.0,36.5 50.5,37.0 50.5,38.0 50.0,38.5 49.5,39.0 49.0,39.5 48.5,40.0 48.0,40.5 47.5,41.0 47.0,41.5 46.5,42.0 46.0,42.5 45.5,43.0 45.0,43.5 44.0,43.5 43.5,44.0 43.0,44.5 42.0,44.5 41.5,45.0 41.0,45.5 40.0,45.5 39.0,45.5 38.0,45.5 37.0,45.5 36.5,46.0 36.0,46.5" stroke="black" stroke-width="1" /><polyline fill="white" points="39.5,37.0 40.0,36.5 41.0,36.5 41.5,36.0 42.0,35.5 42.5,35.0 43.0,34.5 43.5,34.0 43.5,33.0 44.0,32.5 44.5,32.0 44.5,31.0 44.5,30.0 44.5,29.0 44.5,28.0 44.5,27.0 44.5,26.0 44.5,25.0 44.0,24.5 43.5,24.0 43.0,23.5 42.5,23.0 42.0,22.5 41.5,22.0 41.0,21.5 40.5,21.0 40.0,20.5 39.0,20.5 38.0,20.5 37.5,20.0 37.0,19.5 36.0,19.5 35.0,19.5 34.0,19.5 33.5,20.0 33.0,20.5 32.0,20.5 31.0,20.5 30.5,21.0 30.0,21.5 29.5,22.0 29.0,22.5 28.5,23.0 28.0,23.5 27.5,24.0 27.5,25.0 27.0,25.5 26.5,26.0 26.5,27.0 26.5,28.0 26.5,29.0 26.5,30.0 26.5,31.0 26.5,32.0 27.0,32.5 27.5,33.0 27.5,34.0 28.0,34.5 28.5,35.0 29.0,35.5 29.5,36.0 30.0,36.5 31.0,36.5 31.5,37.0 32.0,37.5 33.0,37.5 34.0,37.5 35.0,37.5 36.0,37.5 37.0,37.5 38.0,37.5 39.0,37.5 39.5,37.0" stroke="black" stroke-width="1" /><polyline fill="white" points="36.0,33.5 35.0,33.5 34.5,33.0 34.0,32.5 33.5,32.0 33.0,31.5 32.5,31.0 32.0,30.5 31.5,30.0 31.0,29.5 30.5,29.0 30.5,28.0 31.0,27.5 31.5,27.0 32.0,26.5 33.0,26.5 33.5,26.0 34.0,25.5 34.5,25.0 34.5,24.0 35.0,23.5 36.0,23.5 36.5,24.0 37.0,24.5 37.5,25.0 38.0,25.5 38.5,26.0 39.0,26.5 39.5,27.0 40.0,27.5 40.5,28.0 41.0,28.5 41.5,29.0 41.0,29.5 40.0,29.5 39.5,30.0 39.0,30.5 38.5,31.0 38.0,31.5 37.5,32.0 37.0,32.5 36.5,33.0 36.0,33.5" stroke="black" stroke-width="1" /><polyline fill="white" points="17.0,46.5 16.0,46.5 15.0,46.5 14.0,46.5 13.0,46.5 12.0,46.5 11.0,46.5 10.5,46.0 10.5,45.0 10.5,44.0 10.5,43.0 10.5,42.0 10.5,41.0 10.5,40.0 10.5,39.0 10.5,38.0 11.0,37.5 12.0,37.5 13.0,37.5 14.0,37.5 15.0,37.5 16.0,37.5 17.0,37.5 18.0,37.5 18.5,38.0 18.5,39.0 18.5,40.0 18.5,41.0 18.5,42.0 18.5,43.0 18.5,44.0 18.5,45.0 18.0,45.5 17.5,46.0 17.0,46.5" stroke="black" stroke-width="1" /></svg>